<svg width="520" height="360" viewBox="0 0 520 360" fill="none" xmlns="http://www.w3.org/2000/svg">
  <rect width="520" height="360" rx="28" fill="#FFF7EF"/>
  <rect x="54" y="62" width="412" height="236" rx="24" fill="#FFFFFF"/>
  <path d="M104 118C144 88 203 86 244 120C283 153 338 153 382 119" stroke="#D5E2F9" stroke-width="18" stroke-linecap="round"/>
  <path d="M117 198C163 160 222 162 259 198C296 233 352 233 398 194" stroke="#C3D8FF" stroke-width="18" stroke-linecap="round"/>
  <circle cx="136" cy="118" r="20" fill="#FF7A3D"/>
  <circle cx="260" cy="198" r="22" fill="#0F7BFF"/>
  <circle cx="382" cy="119" r="20" fill="#19C5B2"/>
  <path d="M136 146V228" stroke="#FF7A3D" stroke-width="5" stroke-dasharray="8 8"/>
  <path d="M260 226V276" stroke="#0F7BFF" stroke-width="5" stroke-dasharray="8 8"/>
  <path d="M382 147V228" stroke="#19C5B2" stroke-width="5" stroke-dasharray="8 8"/>
  <rect x="99" y="228" width="74" height="32" rx="16" fill="#FFF0E7"/>
  <rect x="223" y="276" width="74" height="32" rx="16" fill="#E8F1FF"/>
  <rect x="345" y="228" width="74" height="32" rx="16" fill="#E4FFFA"/>
</svg>
